<svg width="183" height="65" viewBox="0 0 183 65" fill="none" xmlns="http://www.w3.org/2000/svg">
<path d="M142.534 51.6623L138.823 42.5724L145.029 8.22454L153.277 4.85724L158.225 16.9771L153.511 18.9013L150.216 37.5284L150.354 37.865L175.94 27.4195L179.651 36.5094L142.534 51.6623ZM166.24 49.8398L162.357 40.3291L160.995 36.2703L148.9 6.64397L159.842 2.17715L177.434 45.2699L166.24 49.8398Z" fill="#A39D9D"/>
<path d="M90.489 64.2727C86.2617 64.2575 82.6102 63.2802 79.5345 61.3408C76.4587 59.4015 74.0875 56.606 72.4208 52.9545C70.7542 49.303 69.9284 44.9242 69.9436 39.8181C69.9587 34.6969 70.792 30.3484 72.4436 26.7727C74.1102 23.1969 76.4739 20.4772 79.5345 18.6136C82.6102 16.7499 86.2617 15.8181 90.489 15.8181C94.7163 15.8181 98.3678 16.7575 101.444 18.6363C104.519 20.4999 106.891 23.2196 108.557 26.7954C110.224 30.3711 111.05 34.7121 111.034 39.8181C111.034 44.9545 110.201 49.3484 108.534 52.9999C106.868 56.6515 104.497 59.4469 101.421 61.3863C98.3602 63.3105 94.7163 64.2727 90.489 64.2727ZM90.489 53.9999C92.6708 53.9999 94.4587 52.8636 95.8527 50.5908C97.2618 48.303 97.9587 44.7121 97.9436 39.8181C97.9436 36.6211 97.6254 34.0075 96.989 31.9772C96.3527 29.9469 95.4739 28.4469 94.3527 27.4772C93.2315 26.4924 91.9436 25.9999 90.489 25.9999C88.3072 25.9999 86.5269 27.106 85.1481 29.3181C83.7693 31.5302 83.0648 35.0302 83.0345 39.8181C83.0193 43.0757 83.3299 45.7575 83.9663 47.8636C84.6027 49.9545 85.4815 51.4999 86.6027 52.4999C87.739 53.4999 89.0345 53.9999 90.489 53.9999Z" fill="#A39D9D"/>
<path d="M2.5648 39.5902L5.08546 30.1011L30.747 6.44173L39.3575 8.729L35.9966 21.3811L31.0764 20.0741L17.2159 32.9471L17.1226 33.2986L43.8326 40.3938L41.3119 49.8829L2.5648 39.5902ZM22.5753 52.4307L25.2126 42.5023L26.5732 38.4428L34.7887 7.51534L46.2107 10.5495L34.2609 55.5348L22.5753 52.4307Z" fill="#A39D9D"/>
</svg>
