<svg width="61" height="42" viewBox="0 0 61 42" fill="none" xmlns="http://www.w3.org/2000/svg">
<path d="M30.5 6.73413C17.0228 6.73413 6.1 17.1605 6.1 30.0251V38.7593C6.1 40.3696 4.73703 41.6707 3.05 41.6707C1.36297 41.6707 0 40.3696 0 38.7593V30.0251C0 13.9489 13.6583 0.911377 30.5 0.911377C47.3417 0.911377 61 13.9489 61 30.0251V38.7593C61 40.3696 59.637 41.6707 57.95 41.6707C56.263 41.6707 54.9 40.3696 54.9 38.7593V30.0251C54.9 17.1605 43.9772 6.73413 30.5 6.73413ZM30.5 24.2024C27.1355 24.2024 24.4 26.8135 24.4 30.0251V38.7593C24.4 40.3696 23.037 41.6707 21.35 41.6707C19.663 41.6707 18.3 40.3696 18.3 38.7593V30.0251C18.3 23.5928 23.7614 18.3796 30.5 18.3796C37.2386 18.3796 42.7 23.5928 42.7 30.0251V38.7593C42.7 40.3696 41.337 41.6707 39.65 41.6707C37.963 41.6707 36.6 40.3696 36.6 38.7593V30.0251C36.6 26.8135 33.8645 24.2024 30.5 24.2024ZM15.25 30.0251V38.7593C15.25 40.3696 13.887 41.6707 12.2 41.6707C10.513 41.6707 9.15 40.3696 9.15 38.7593V30.0251C9.15 18.7709 18.7098 9.64551 30.5 9.64551C42.2902 9.64551 51.85 18.7709 51.85 30.0251V38.7593C51.85 40.3696 50.487 41.6707 48.8 41.6707C47.113 41.6707 45.75 40.3696 45.75 38.7593V30.0251C45.75 21.9825 38.9256 15.4683 30.5 15.4683C22.0744 15.4683 15.25 21.9825 15.25 30.0251Z" fill="#48F844"/>
</svg>
