<svg width="61" height="58" viewBox="0 0 61 58" fill="none" xmlns="http://www.w3.org/2000/svg">
<path d="M30.5 0.464844C32.3247 0.464844 33.7927 1.65875 33.7927 3.14276V8.28659L36.9482 5.72026C38.2378 4.67141 40.3232 4.67141 41.5991 5.72026C42.875 6.76911 42.8887 8.46512 41.5991 9.50282L33.779 15.8629V24.3987L42.8613 20.1364L45.7287 11.4555C46.1951 10.0272 48.0061 9.17923 49.7622 9.55861C51.5183 9.93798 52.561 11.4108 52.0945 12.8391L50.9421 16.3315L56.032 13.9437C57.6098 13.2073 59.6265 13.6424 60.532 14.9256C61.4375 16.2088 60.9025 17.849 59.3247 18.5854L54.2348 20.9732L58.5564 21.9105C60.3125 22.2899 61.3552 23.7627 60.8887 25.1909C60.4223 26.6192 58.6113 27.4672 56.8552 27.0878L46.1814 24.7558L37.0854 29.0293L46.1677 33.2916L56.8415 30.9596C58.5976 30.5803 60.4086 31.4283 60.875 32.8565C61.3415 34.2847 60.2988 35.7576 58.5427 36.1369L54.2348 37.0854L59.3247 39.4732C60.9025 40.2096 61.4375 41.8498 60.532 43.133C59.6265 44.4162 57.6098 44.8513 56.032 44.1149L50.9421 41.7271L52.0945 45.2419C52.561 46.6701 51.5183 48.1429 49.7622 48.5223C48.0061 48.9017 46.1951 48.0537 45.7287 46.6254L42.8613 37.9445L33.7927 33.671V42.2069L41.6128 48.5669C42.9024 49.6158 42.9024 51.3118 41.6128 52.3495C40.3232 53.3872 38.2378 53.3983 36.9619 52.3495L33.8064 49.7832V54.9158C33.8064 56.3998 32.3384 57.5938 30.5137 57.5938C28.689 57.5938 27.221 56.3998 27.221 54.9158V49.772L24.0655 52.3383C22.7759 53.3872 20.6905 53.3872 19.4146 52.3383C18.1387 51.2895 18.125 49.5935 19.4146 48.5558L27.2348 42.1957V33.671L18.1524 37.9334L15.2851 46.6143C14.8186 48.0425 13.0076 48.8905 11.2515 48.5111C9.49542 48.1318 8.45273 46.6589 8.9192 45.2307L10.0579 41.7271L4.96798 44.1149C3.39023 44.8513 1.37346 44.4162 0.467975 43.133C-0.437513 41.8498 0.0975481 40.2096 1.67529 39.4732L6.76523 37.0854L2.44359 36.1481C0.687488 35.7687 -0.355196 34.2959 0.111268 32.8676C0.577731 31.4394 2.38871 30.5914 4.14481 30.9708L14.8186 33.3028L23.9146 29.0293L14.8323 24.7669L4.14481 27.0878C2.38871 27.4672 0.577731 26.6192 0.111268 25.1909C-0.355196 23.7627 0.687488 22.2899 2.44359 21.9105L6.76523 20.9732L1.67529 18.5854C0.0975481 17.849 -0.437513 16.2088 0.467975 14.9256C1.37346 13.6424 3.39023 13.2073 4.96798 13.9437L10.0579 16.3315L8.90548 12.8167C8.43902 11.3885 9.4817 9.91566 11.2378 9.53629C12.9939 9.15692 14.8049 10.0049 15.2713 11.4331L18.1387 20.1141L27.2073 24.3876V15.8517L19.3872 9.50282C18.0976 8.45396 18.0976 6.75795 19.3872 5.72026C20.6768 4.68256 22.7622 4.67141 24.0381 5.72026L27.1936 8.28659V3.14276C27.1936 1.65875 28.6616 0.464844 30.4863 0.464844H30.5Z" fill="#0B99FF"/>
</svg>
