<svg width="75" height="94" viewBox="0 0 75 94" fill="none" xmlns="http://www.w3.org/2000/svg">
<circle cx="37.5" cy="56.5" r="37.5" fill="#2ECC71"/>
<path d="M37.5715 39.448C35.9502 39.448 34.6062 38.9573 33.5395 37.976C32.5155 36.952 32.0035 35.6933 32.0035 34.2C32.0035 32.7067 32.5155 31.4693 33.5395 30.488C34.6062 29.464 35.9502 28.952 37.5715 28.952C39.1502 28.952 40.4515 29.464 41.4755 30.488C42.4995 31.4693 43.0115 32.7067 43.0115 34.2C43.0115 35.6933 42.4995 36.952 41.4755 37.976C40.4515 38.9573 39.1502 39.448 37.5715 39.448Z" fill="white"/>
<path d="M37.5715 81.448C35.9502 81.448 34.6062 80.9573 33.5395 79.976C32.5155 78.952 32.0035 77.6933 32.0035 76.2C32.0035 74.7067 32.5155 73.4693 33.5395 72.488C34.6062 71.464 35.9502 70.952 37.5715 70.952C39.1502 70.952 40.4515 71.464 41.4755 72.488C42.4995 73.4693 43.0115 74.7067 43.0115 76.2C43.0115 77.6933 42.4995 78.952 41.4755 79.976C40.4515 80.9573 39.1502 81.448 37.5715 81.448Z" fill="white"/>
<path d="M37.5715 61.448C35.9502 61.448 34.6062 60.9573 33.5395 59.976C32.5155 58.952 32.0035 57.6933 32.0035 56.2C32.0035 54.7067 32.5155 53.4693 33.5395 52.488C34.6062 51.464 35.9502 50.952 37.5715 50.952C39.1502 50.952 40.4515 51.464 41.4755 52.488C42.4995 53.4693 43.0115 54.7067 43.0115 56.2C43.0115 57.6933 42.4995 58.952 41.4755 59.976C40.4515 60.9573 39.1502 61.448 37.5715 61.448Z" fill="white"/>
</svg>
