<svg width="62" height="48" viewBox="0 0 62 48" fill="none" xmlns="http://www.w3.org/2000/svg">
<path d="M60.5566 4.62077C61.6805 3.76554 61.6805 2.3826 60.5566 1.53646C59.4326 0.690319 57.6152 0.681221 56.5032 1.53646L45.9693 9.53384C44.8454 10.3891 44.8454 11.772 45.9693 12.6182C47.0933 13.4643 48.9107 13.4734 50.0227 12.6182L60.5446 4.61168L60.5566 4.62077ZM36.7029 3.37431C35.9615 2.81022 34.742 2.81022 34.0006 3.37431L32.6376 4.40242C28.1538 7.81427 28.1538 13.346 32.6376 16.7579L33.8811 17.7041L30.2343 20.4791C29.8277 17.9952 28.381 15.5842 25.87 13.6736L24.5189 12.6455C23.7776 12.0814 22.558 12.0814 21.8167 12.6455L20.4656 13.6736C15.9818 17.0854 15.9818 22.6172 20.4656 26.029L21.7091 26.9752L18.0623 29.7502C17.6558 27.2664 16.209 24.8553 13.6981 22.9447L12.347 21.9075C11.6056 21.3434 10.3861 21.3434 9.64473 21.9075L8.29362 22.9356C3.80984 26.3475 3.80984 31.8792 8.29362 35.2911L9.53712 36.2373L1.29892 42.506C-0.19567 43.6433 -0.19567 45.4902 1.29892 46.6275C2.79352 47.7648 5.22074 47.7648 6.71533 46.6275L14.9535 40.3588L16.4123 41.4688C20.896 44.8806 28.1657 44.8806 32.6495 41.4688L34.0006 40.4407C34.742 39.8766 34.742 38.9486 34.0006 38.3845L32.6495 37.3564C30.043 35.3729 26.719 34.2539 23.3113 33.9991L27.1255 31.0968L28.5842 32.2067C33.068 35.6186 40.3377 35.6186 44.8215 32.2067L46.1726 31.1786C46.9139 30.6145 46.9139 29.6865 46.1726 29.1224L44.8215 28.0943C42.2149 26.1109 38.8909 24.9918 35.4833 24.7371L39.2975 21.8347L40.7562 22.9447C45.24 26.3566 52.5097 26.3566 56.9935 22.9447L58.3446 21.9075C59.0859 21.3434 59.0859 20.4154 58.3446 19.8513L56.9935 18.8141C56.3717 18.341 55.726 17.9225 55.0326 17.5494L60.5566 13.3551C61.6805 12.4999 61.6805 11.1169 60.5566 10.2708C59.4326 9.42466 57.6152 9.41556 56.5032 10.2708L49.4009 15.6752C46.9378 15.2749 44.3791 15.3385 41.9519 15.8662C42.6812 13.9283 42.741 11.8812 42.1193 9.92507L49.0781 4.62077C50.202 3.76554 50.202 2.3826 49.0781 1.53646C47.9542 0.690319 46.1367 0.681221 45.0248 1.53646L39.5247 5.70347C39.0823 5.24855 38.592 4.81184 38.042 4.40242L36.7029 3.37431Z" fill="#FC7C05"/>
</svg>
