<svg width="61" height="47" viewBox="0 0 61 47" fill="none" xmlns="http://www.w3.org/2000/svg">
<path d="M43.0694 0.269283C43.6651 0.460343 44.094 0.869755 44.2131 1.35195L46.584 11.1688L59.4393 12.9702C60.0707 13.0611 60.6068 13.3887 60.857 13.8436C61.1072 14.2985 61.0358 14.8171 60.6664 15.2265L53.244 23.4511L60.6664 31.6667C61.0358 32.0761 61.1072 32.5947 60.857 33.0496C60.6068 33.5045 60.0707 33.832 59.4393 33.923L46.584 35.7335L44.2131 45.5503C44.094 46.0325 43.6651 46.4419 43.0694 46.633C42.4736 46.824 41.7945 46.7694 41.2584 46.4874L30.5 40.8193L19.7416 46.4874C19.2055 46.7694 18.5264 46.824 17.9307 46.633C17.335 46.4419 16.9061 46.0325 16.7869 45.5503L14.416 35.7335L1.56076 33.923C0.929313 33.832 0.393181 33.5045 0.142985 33.0496C-0.10721 32.5947 -0.0357256 32.0761 0.33361 31.6667L7.75607 23.4511L0.33361 15.2356C-0.0357256 14.8262 -0.10721 14.3076 0.142985 13.8527C0.393181 13.3978 0.929313 13.0702 1.56076 12.9793L14.416 11.1688L16.7869 1.35195C16.9061 0.869755 17.335 0.460343 17.9307 0.269283C18.5264 0.0782243 19.2055 0.132813 19.7416 0.414852L30.5 6.08294L41.2584 0.414852C41.7945 0.132813 42.4736 0.0782243 43.0694 0.269283ZM19.0625 23.4511C19.0625 21.1347 20.2675 18.9131 22.4125 17.2752C24.5574 15.6372 27.4666 14.717 30.5 14.717C33.5334 14.717 36.4426 15.6372 38.5876 17.2752C40.7325 18.9131 41.9375 21.1347 41.9375 23.4511C41.9375 25.7676 40.7325 27.9891 38.5876 29.6271C36.4426 31.2651 33.5334 32.1853 30.5 32.1853C27.4666 32.1853 24.5574 31.2651 22.4125 29.6271C20.2675 27.9891 19.0625 25.7676 19.0625 23.4511ZM45.75 23.4511C45.75 20.3625 44.1433 17.4005 41.2834 15.2165C38.4235 13.0325 34.5446 11.8056 30.5 11.8056C26.4555 11.8056 22.5766 13.0325 19.7166 15.2165C16.8567 17.4005 15.25 20.3625 15.25 23.4511C15.25 26.5397 16.8567 29.5018 19.7166 31.6857C22.5766 33.8697 26.4555 35.0966 30.5 35.0966C34.5446 35.0966 38.4235 33.8697 41.2834 31.6857C44.1433 29.5018 45.75 26.5397 45.75 23.4511Z" fill="#FCE405"/>
</svg>
